# xmcd CD database file
#
# Track frame offsets:
#	150
#	23502
#	45297
#	73292
#	98617
#	126182
#	145757
#	169392
#	195040
#	214695
#
# Disc length: 3002 seconds
#
# Revision: 0
# Processed by: cddbd v1.4PL0 Copyright (c) Steve Scherf et al.
# Submitted via: CDex 1.50
#
DISCID=7f0bb80a
DTITLE=Prysm - Time
DYEAR=1999
DGENRE=Jazz
TTITLE0=Keystone
TTITLE1=Dream on
TTITLE2=X-ray
TTITLE3=Voice of angels
TTITLE4=The circle
TTITLE5=Light
TTITLE6=Exit
TTITLE7=Outlines
TTITLE8=Jacques song
TTITLE9=Scratch...
EXTD=YEAR: 1999
EXTT0=
EXTT1=
EXTT2=
EXTT3=
EXTT4=
EXTT5=
EXTT6=
EXTT7=
EXTT8=
EXTT9=
PLAYORDER=
